HIERARCHY
ROOT __0
{
	OFFSET 0.0 0.0 0.0
	CHANNELS 0
	JOINT spine
	{
		OFFSET 0.000000 -0.014402 0.264660
		CHANNELS 6 Xposition Yposition Zposition Xrotation Yrotation Zrotation
		JOINT spine top
		{
			OFFSET -0.000000 0.058246 0.209758
			CHANNELS 3 Xrotation Yrotation Zrotation
			JOINT NeckBot
			{
				OFFSET 0.000000 -0.034711 0.125681
				CHANNELS 3 Xrotation Yrotation Zrotation
				JOINT NeckTop
				{
					OFFSET -0.000000 -0.014527 0.216432
					CHANNELS 3 Xrotation Yrotation Zrotation
					End Site
					{
						OFFSET 0.000000 0.018502 0.278669
					}
				}
			}
			JOINT ArmStartTop.L
			{
				OFFSET 0.016245 -0.034711 0.119841
				CHANNELS 6 Xposition Yposition Zposition Xrotation Yrotation Zrotation
				JOINT ArmMidTop.L
				{
					OFFSET 0.044463 0.000000 -0.029495
					CHANNELS 3 Xrotation Yrotation Zrotation
					JOINT ArmEndTop.L
					{
						OFFSET 0.393913 -0.000000 -0.000000
						CHANNELS 3 Xrotation Yrotation Zrotation
						End Site
						{
							OFFSET 0.461072 0.000000 0.000000
						}
					}
				}
			}
			JOINT ArmStart.R
			{
				OFFSET -0.016272 -0.034711 0.121166
				CHANNELS 6 Xposition Yposition Zposition Xrotation Yrotation Zrotation
				JOINT ArmMid.R
				{
					OFFSET -0.042500 0.000000 -0.029253
					CHANNELS 3 Xrotation Yrotation Zrotation
					JOINT ArmEnd.R
					{
						OFFSET -0.393079 -0.000000 0.000000
						CHANNELS 3 Xrotation Yrotation Zrotation
						End Site
						{
							OFFSET -0.483935 -0.000000 0.000000
						}
					}
				}
			}
		}
		JOINT ArmStartBot.L
		{
			OFFSET 0.038272 0.023939 0.230171
			CHANNELS 6 Xposition Yposition Zposition Xrotation Yrotation Zrotation
			JOINT ArmMidBot.L
			{
				OFFSET 0.048653 0.000000 -0.026886
				CHANNELS 3 Xrotation Yrotation Zrotation
				JOINT ArmEndBot.L
				{
					OFFSET 0.367740 -0.000000 -0.000000
					CHANNELS 3 Xrotation Yrotation Zrotation
					End Site
					{
						OFFSET 0.466508 -0.000000 -0.000000
					}
				}
			}
		}
		JOINT spider thingy.L
		{
			OFFSET 0.025407 0.014563 0.059552
			CHANNELS 6 Xposition Yposition Zposition Xrotation Yrotation Zrotation
			JOINT Bone.016
			{
				OFFSET 0.041396 -0.045012 0.007200
				CHANNELS 3 Xrotation Yrotation Zrotation
				End Site
				{
					OFFSET 0.011846 -0.065345 0.009206
				}
			}
		}
		JOINT spider thingy.R
		{
			OFFSET -0.027532 0.007880 0.057875
			CHANNELS 6 Xposition Yposition Zposition Xrotation Yrotation Zrotation
			JOINT Bone.018
			{
				OFFSET -0.037885 -0.045958 0.008877
				CHANNELS 3 Xrotation Yrotation Zrotation
				End Site
				{
					OFFSET -0.005129 -0.065345 0.009206
				}
			}
		}
	}
	JOINT pelvis top
	{
		OFFSET 0.000000 -0.014402 0.264660
		CHANNELS 6 Xposition Yposition Zposition Xrotation Yrotation Zrotation
		JOINT pelvis.L
		{
			OFFSET -0.000000 0.000000 -0.102221
			CHANNELS 3 Xrotation Yrotation Zrotation
			JOINT leg.L
			{
				OFFSET 0.092417 0.000000 -0.033701
				CHANNELS 3 Xrotation Yrotation Zrotation
				JOINT foot.L
				{
					OFFSET 0.022013 0.000000 -0.396427
					CHANNELS 3 Xrotation Yrotation Zrotation
					End Site
					{
						OFFSET -0.022013 0.000000 -0.207485
					}
				}
			}
		}
		JOINT pelvis.R
		{
			OFFSET 0.000000 0.000000 -0.102221
			CHANNELS 3 Xrotation Yrotation Zrotation
			JOINT Leg.R
			{
				OFFSET -0.089835 -0.000000 -0.034513
				CHANNELS 3 Xrotation Yrotation Zrotation
				JOINT foot.R
				{
					OFFSET -0.009175 0.000000 -0.383270
					CHANNELS 3 Xrotation Yrotation Zrotation
					End Site
					{
						OFFSET 0.009178 0.000000 -0.226021
					}
				}
			}
		}
	}
}
MOTION
Frames: 4
Frame Time: 0.041667
0.000000 -0.014402 0.264660 103.109594 0.000000 -0.000000 -27.814286 0.000000 -0.000000 27.614124 -0.000000 -0.000000 -61.936825 -0.447695 4.402477 0.016245 -0.034711 0.119841 -3.107615 -9.563721 10.888385 -2.818259 13.011876 -23.777550 2.874864 5.718435 -80.420239 -0.016272 -0.034711 0.121166 6.992719 8.152208 -11.001141 -23.546700 -23.446796 23.261987 11.239172 -6.069948 78.244106 0.038272 0.023939 0.230171 -0.000001 0.000001 0.000000 23.966408 15.096555 -37.967908 -12.157496 -28.076983 -56.878786 0.025407 0.014563 0.059552 -0.000001 0.000000 0.000002 0.000001 -0.000001 -0.000001 -0.027532 0.007880 0.057875 0.000002 -0.000000 -0.000000 -0.000000 0.000001 0.000002 0.000000 -0.014402 0.264660 51.477165 2.055257 -0.321962 13.953780 0.000002 0.000000 -42.663172 0.530764 -1.084641 35.032208 0.021014 -0.394344 13.953781 0.000002 0.000000 -32.584695 0.436748 -0.726445 32.624269 -0.049344 -0.473050 
0.000000 -0.014402 0.264660 103.285704 0.000000 -0.000000 -27.478416 0.000000 -0.000000 26.951597 -0.000000 -0.000000 -60.462604 -0.447695 4.402478 0.016245 -0.034711 0.119841 -3.107617 -9.563721 10.888384 -2.818260 13.011877 -23.777553 2.874868 5.718434 -80.420239 -0.016272 -0.034711 0.121166 6.992720 8.152208 -11.001141 -23.546696 -23.446795 23.261982 11.239167 -6.069949 78.244106 0.038272 0.023939 0.230171 -0.000001 0.000001 0.000000 16.328290 15.096550 -37.967898 -11.805850 -28.667923 -58.386472 0.025407 0.014563 0.059552 0.000000 0.000000 0.000002 0.000001 -0.000001 -0.000000 -0.027532 0.007880 0.057875 0.000001 -0.000000 -0.000000 -0.000001 0.000000 0.000001 0.000000 -0.014402 0.264660 51.760768 2.055257 -0.321962 13.953780 0.000002 0.000000 -42.896443 0.533653 -1.092610 34.391662 0.001680 -0.414808 13.953783 0.000002 0.000000 -33.570656 0.443108 -0.761700 32.110939 -0.064115 -0.490086 
0.000000 -0.014402 0.264660 103.461834 0.000000 -0.000000 -27.142526 0.000000 -0.000000 26.288881 -0.000000 -0.000000 -58.986415 -0.447695 4.402477 0.016245 -0.034711 0.119841 -3.107617 -9.563721 10.888384 -2.818259 13.011876 -23.777553 2.874868 5.718435 -80.420239 -0.016272 -0.034711 0.121166 6.992721 8.152208 -11.001141 -23.546700 -23.446795 23.261982 11.239168 -6.069947 78.244106 0.038272 0.023939 0.230171 -0.000001 0.000001 0.000000 8.376548 15.096550 -37.967898 -11.469480 -29.268020 -59.901702 0.025407 0.014563 0.059552 -0.000001 0.000000 0.000002 -0.000001 -0.000001 -0.000002 -0.027532 0.007880 0.057875 0.000001 -0.000000 -0.000000 -0.000001 0.000000 0.000001 0.000000 -0.014402 0.264660 52.044392 2.055256 -0.321962 13.953779 0.000003 0.000000 -43.129738 0.536575 -1.100570 33.750949 -0.017427 -0.435493 13.953784 0.000002 0.000000 -34.557199 0.450077 -0.796864 31.597514 -0.078734 -0.507257 
0.000000 -0.014402 0.264660 103.637971 0.000000 -0.000000 -26.806618 0.000000 -0.000000 25.626042 -0.000000 -0.000000 -57.508765 -0.447695 4.402478 0.016245 -0.034711 0.119841 -3.107617 -9.563721 10.888384 -2.818256 13.011876 -23.777552 2.874867 5.718434 -80.420246 -0.016272 -0.034711 0.121166 6.992719 8.152208 -11.001141 -23.546703 -23.446796 23.261983 11.239169 -6.069949 78.244106 0.038272 0.023939 0.230171 -0.000002 0.000001 0.000000 0.172165 15.096552 -37.967895 -11.149045 -29.876620 -61.424219 0.025407 0.014563 0.059552 0.000000 0.000000 0.000002 -0.000000 -0.000002 -0.000003 -0.027532 0.007880 0.057875 0.000003 -0.000000 -0.000000 0.000001 0.000000 -0.000001 0.000000 -0.014402 0.264660 52.328026 2.055257 -0.321962 13.953779 0.000002 0.000000 -43.363017 0.539528 -1.108515 33.110107 -0.036305 -0.456395 13.953781 0.000002 0.000000 -35.544185 0.457652 -0.831919 31.084024 -0.093201 -0.524559 
